<?xml version="1.0" encoding="UTF-8" standalone="no"?>
<!DOCTYPE svg PUBLIC "-//W3C//DTD SVG 1.1//EN"
 "http://www.w3.org/Graphics/SVG/1.1/DTD/svg11.dtd">
<!-- Generated by graphviz version 2.43.0 (0)
 -->
<!-- Title: snakemake_dag Pages: 1 -->
<svg width="218pt" height="620pt"
 viewBox="0.00 0.00 218.00 620.00" xmlns="http://www.w3.org/2000/svg" xmlns:xlink="http://www.w3.org/1999/xlink">
<g id="graph0" class="graph" transform="scale(1 1) rotate(0) translate(4 616)">
<title>snakemake_dag</title>
<polygon fill="white" stroke="transparent" points="-4,4 -4,-616 214,-616 214,4 -4,4"/>
<!-- 0 -->
<g id="node1" class="node">
<title>0</title>
<path fill="none" stroke="#9fd856" stroke-width="2" d="M126,-36C126,-36 96,-36 96,-36 90,-36 84,-30 84,-24 84,-24 84,-12 84,-12 84,-6 90,0 96,0 96,0 126,0 126,0 132,0 138,-6 138,-12 138,-12 138,-24 138,-24 138,-30 132,-36 126,-36"/>
<text text-anchor="middle" x="111" y="-15.5" font-family="sans" font-size="10.00">all</text>
</g>
<!-- 1 -->
<g id="node2" class="node">
<title>1</title>
<path fill="none" stroke="#ced856" stroke-width="2" d="M126,-108C126,-108 96,-108 96,-108 90,-108 84,-102 84,-96 84,-96 84,-84 84,-84 84,-78 90,-72 96,-72 96,-72 126,-72 126,-72 132,-72 138,-78 138,-84 138,-84 138,-96 138,-96 138,-102 132,-108 126,-108"/>
<text text-anchor="middle" x="111" y="-87.5" font-family="sans" font-size="10.00">export</text>
</g>
<!-- 1&#45;&gt;0 -->
<g id="edge1" class="edge">
<title>1&#45;&gt;0</title>
<path fill="none" stroke="grey" stroke-width="2" d="M111,-71.7C111,-63.98 111,-54.71 111,-46.11"/>
<polygon fill="grey" stroke="grey" stroke-width="2" points="114.5,-46.1 111,-36.1 107.5,-46.1 114.5,-46.1"/>
</g>
<!-- 2 -->
<g id="node3" class="node">
<title>2</title>
<path fill="none" stroke="#5682d8" stroke-width="2" d="M116,-324C116,-324 86,-324 86,-324 80,-324 74,-318 74,-312 74,-312 74,-300 74,-300 74,-294 80,-288 86,-288 86,-288 116,-288 116,-288 122,-288 128,-294 128,-300 128,-300 128,-312 128,-312 128,-318 122,-324 116,-324"/>
<text text-anchor="middle" x="101" y="-303.5" font-family="sans" font-size="10.00">refine</text>
</g>
<!-- 2&#45;&gt;1 -->
<g id="edge2" class="edge">
<title>2&#45;&gt;1</title>
<path fill="none" stroke="grey" stroke-width="2" d="M99.94,-287.56C98.38,-257.96 96.13,-196.04 101,-144 101.8,-135.48 103.3,-126.28 104.9,-117.99"/>
<polygon fill="grey" stroke="grey" stroke-width="2" points="108.36,-118.57 106.94,-108.07 101.5,-117.16 108.36,-118.57"/>
</g>
<!-- 3 -->
<g id="node4" class="node">
<title>3</title>
<path fill="none" stroke="#56d89a" stroke-width="2" d="M42,-180C42,-180 12,-180 12,-180 6,-180 0,-174 0,-168 0,-168 0,-156 0,-156 0,-150 6,-144 12,-144 12,-144 42,-144 42,-144 48,-144 54,-150 54,-156 54,-156 54,-168 54,-168 54,-174 48,-180 42,-180"/>
<text text-anchor="middle" x="27" y="-159.5" font-family="sans" font-size="10.00">traits</text>
</g>
<!-- 2&#45;&gt;3 -->
<g id="edge8" class="edge">
<title>2&#45;&gt;3</title>
<path fill="none" stroke="grey" stroke-width="2" d="M89.44,-287.66C82.83,-277.46 74.58,-264.21 68,-252 56.9,-231.4 45.89,-207.25 38.08,-189.31"/>
<polygon fill="grey" stroke="grey" stroke-width="2" points="41.26,-187.84 34.09,-180.04 34.83,-190.61 41.26,-187.84"/>
</g>
<!-- 4 -->
<g id="node5" class="node">
<title>4</title>
<path fill="none" stroke="#56d8c9" stroke-width="2" d="M198,-252C198,-252 160,-252 160,-252 154,-252 148,-246 148,-240 148,-240 148,-228 148,-228 148,-222 154,-216 160,-216 160,-216 198,-216 198,-216 204,-216 210,-222 210,-228 210,-228 210,-240 210,-240 210,-246 204,-252 198,-252"/>
<text text-anchor="middle" x="179" y="-231.5" font-family="sans" font-size="10.00">ancestral</text>
</g>
<!-- 2&#45;&gt;4 -->
<g id="edge9" class="edge">
<title>2&#45;&gt;4</title>
<path fill="none" stroke="grey" stroke-width="2" d="M120.28,-287.7C129.92,-279.05 141.73,-268.45 152.23,-259.03"/>
<polygon fill="grey" stroke="grey" stroke-width="2" points="154.84,-261.39 159.94,-252.1 150.16,-256.18 154.84,-261.39"/>
</g>
<!-- 5 -->
<g id="node6" class="node">
<title>5</title>
<path fill="none" stroke="#56d86b" stroke-width="2" d="M158,-180C158,-180 122,-180 122,-180 116,-180 110,-174 110,-168 110,-168 110,-156 110,-156 110,-150 116,-144 122,-144 122,-144 158,-144 158,-144 164,-144 170,-150 170,-156 170,-156 170,-168 170,-168 170,-174 164,-180 158,-180"/>
<text text-anchor="middle" x="140" y="-159.5" font-family="sans" font-size="10.00">translate</text>
</g>
<!-- 2&#45;&gt;5 -->
<g id="edge11" class="edge">
<title>2&#45;&gt;5</title>
<path fill="none" stroke="grey" stroke-width="2" d="M105.7,-287.87C112.38,-263.56 124.67,-218.82 132.58,-190.01"/>
<polygon fill="grey" stroke="grey" stroke-width="2" points="136.01,-190.76 135.28,-180.19 129.26,-188.91 136.01,-190.76"/>
</g>
<!-- 3&#45;&gt;1 -->
<g id="edge3" class="edge">
<title>3&#45;&gt;1</title>
<path fill="none" stroke="grey" stroke-width="2" d="M47.76,-143.7C58.24,-134.97 71.11,-124.24 82.5,-114.75"/>
<polygon fill="grey" stroke="grey" stroke-width="2" points="85.03,-117.19 90.47,-108.1 80.55,-111.82 85.03,-117.19"/>
</g>
<!-- 4&#45;&gt;1 -->
<g id="edge4" class="edge">
<title>4&#45;&gt;1</title>
<path fill="none" stroke="grey" stroke-width="2" d="M183.24,-215.94C186.96,-197.26 190.19,-166.91 179,-144 172.11,-129.9 159.47,-118.47 146.93,-109.87"/>
<polygon fill="grey" stroke="grey" stroke-width="2" points="148.65,-106.82 138.34,-104.38 144.88,-112.72 148.65,-106.82"/>
</g>
<!-- 4&#45;&gt;5 -->
<g id="edge12" class="edge">
<title>4&#45;&gt;5</title>
<path fill="none" stroke="grey" stroke-width="2" d="M169.36,-215.7C164.87,-207.64 159.44,-197.89 154.48,-188.98"/>
<polygon fill="grey" stroke="grey" stroke-width="2" points="157.45,-187.14 149.53,-180.1 151.34,-190.54 157.45,-187.14"/>
</g>
<!-- 5&#45;&gt;1 -->
<g id="edge5" class="edge">
<title>5&#45;&gt;1</title>
<path fill="none" stroke="grey" stroke-width="2" d="M132.83,-143.7C129.57,-135.81 125.63,-126.3 122,-117.55"/>
<polygon fill="grey" stroke="grey" stroke-width="2" points="125.15,-116 118.09,-108.1 118.68,-118.68 125.15,-116"/>
</g>
<!-- 6 -->
<g id="node7" class="node">
<title>6</title>
<path fill="none" stroke="#d85656" stroke-width="2" d="M139,-396C139,-396 109,-396 109,-396 103,-396 97,-390 97,-384 97,-384 97,-372 97,-372 97,-366 103,-360 109,-360 109,-360 139,-360 139,-360 145,-360 151,-366 151,-372 151,-372 151,-384 151,-384 151,-390 145,-396 139,-396"/>
<text text-anchor="middle" x="124" y="-375.5" font-family="sans" font-size="10.00">tree</text>
</g>
<!-- 6&#45;&gt;2 -->
<g id="edge6" class="edge">
<title>6&#45;&gt;2</title>
<path fill="none" stroke="grey" stroke-width="2" d="M118.31,-359.7C115.75,-351.9 112.67,-342.51 109.82,-333.83"/>
<polygon fill="grey" stroke="grey" stroke-width="2" points="113.07,-332.51 106.62,-324.1 106.42,-334.7 113.07,-332.51"/>
</g>
<!-- 7 -->
<g id="node8" class="node">
<title>7</title>
<path fill="none" stroke="#70d856" stroke-width="2" d="M139,-468C139,-468 109,-468 109,-468 103,-468 97,-462 97,-456 97,-456 97,-444 97,-444 97,-438 103,-432 109,-432 109,-432 139,-432 139,-432 145,-432 151,-438 151,-444 151,-444 151,-456 151,-456 151,-462 145,-468 139,-468"/>
<text text-anchor="middle" x="124" y="-447.5" font-family="sans" font-size="10.00">align</text>
</g>
<!-- 7&#45;&gt;2 -->
<g id="edge7" class="edge">
<title>7&#45;&gt;2</title>
<path fill="none" stroke="grey" stroke-width="2" d="M108.39,-431.77C100.63,-422.03 92.05,-409.18 88,-396 81.72,-375.57 85.87,-351.54 91.1,-333.6"/>
<polygon fill="grey" stroke="grey" stroke-width="2" points="94.43,-334.66 94.14,-324.07 87.76,-332.53 94.43,-334.66"/>
</g>
<!-- 7&#45;&gt;4 -->
<g id="edge10" class="edge">
<title>7&#45;&gt;4</title>
<path fill="none" stroke="grey" stroke-width="2" d="M139,-431.57C146.58,-421.76 155.18,-408.92 160,-396 176.7,-351.22 179.61,-295.01 179.67,-262.24"/>
<polygon fill="grey" stroke="grey" stroke-width="2" points="183.17,-262.04 179.6,-252.07 176.17,-262.09 183.17,-262.04"/>
</g>
<!-- 7&#45;&gt;6 -->
<g id="edge13" class="edge">
<title>7&#45;&gt;6</title>
<path fill="none" stroke="grey" stroke-width="2" d="M124,-431.7C124,-423.98 124,-414.71 124,-406.11"/>
<polygon fill="grey" stroke="grey" stroke-width="2" points="127.5,-406.1 124,-396.1 120.5,-406.1 127.5,-406.1"/>
</g>
<!-- 8 -->
<g id="node9" class="node">
<title>8</title>
<path fill="none" stroke="#d88556" stroke-width="2" d="M139,-540C139,-540 109,-540 109,-540 103,-540 97,-534 97,-528 97,-528 97,-516 97,-516 97,-510 103,-504 109,-504 109,-504 139,-504 139,-504 145,-504 151,-510 151,-516 151,-516 151,-528 151,-528 151,-534 145,-540 139,-540"/>
<text text-anchor="middle" x="124" y="-519.5" font-family="sans" font-size="10.00">filter</text>
</g>
<!-- 8&#45;&gt;7 -->
<g id="edge14" class="edge">
<title>8&#45;&gt;7</title>
<path fill="none" stroke="grey" stroke-width="2" d="M124,-503.7C124,-495.98 124,-486.71 124,-478.11"/>
<polygon fill="grey" stroke="grey" stroke-width="2" points="127.5,-478.1 124,-468.1 120.5,-478.1 127.5,-478.1"/>
</g>
<!-- 9 -->
<g id="node10" class="node">
<title>9</title>
<path fill="none" stroke="#56b1d8" stroke-width="2" stroke-dasharray="5,2" d="M162.5,-612C162.5,-612 85.5,-612 85.5,-612 79.5,-612 73.5,-606 73.5,-600 73.5,-600 73.5,-588 73.5,-588 73.5,-582 79.5,-576 85.5,-576 85.5,-576 162.5,-576 162.5,-576 168.5,-576 174.5,-582 174.5,-588 174.5,-588 174.5,-600 174.5,-600 174.5,-606 168.5,-612 162.5,-612"/>
<text text-anchor="middle" x="124" y="-591.5" font-family="sans" font-size="10.00">index_sequences</text>
</g>
<!-- 9&#45;&gt;8 -->
<g id="edge15" class="edge">
<title>9&#45;&gt;8</title>
<path fill="none" stroke="grey" stroke-width="2" d="M124,-575.7C124,-567.98 124,-558.71 124,-550.11"/>
<polygon fill="grey" stroke="grey" stroke-width="2" points="127.5,-550.1 124,-540.1 120.5,-550.1 127.5,-550.1"/>
</g>
</g>
</svg>
